<?xml version="1.0" encoding="utf-8"?>
<!-- Generator: Adobe Illustrator 23.0.1, SVG Export Plug-In . SVG Version: 6.00 Build 0)  -->
<svg version="1.1" id="Layer_1" xmlns="http://www.w3.org/2000/svg" xmlns:xlink="http://www.w3.org/1999/xlink" x="0px" y="0px"
	 viewBox="0 0 512 512" style="enable-background:new 0 0 512 512;" xml:space="preserve">
<style type="text/css">
	.st0{fill:#010101;}
	.st1{fill:none;stroke:#010101;stroke-width:20.8333;stroke-linecap:round;stroke-linejoin:round;stroke-miterlimit:10;}
</style>
<g id="XMLID_9073_">
	<g id="XMLID_9078_">
		<path id="XMLID_17268_" class="st0" d="M443.5,78.9h-125c-5.8,0-10.4-4.7-10.4-10.4s4.7-10.4,10.4-10.4h125
			c5.8,0,10.4,4.7,10.4,10.4S449.3,78.9,443.5,78.9z"/>
	</g>
	<g id="XMLID_9077_">
		<path id="XMLID_17267_" class="st0" d="M401.8,120.6c-2.7,0-5.3-1-7.4-3.1c-4.1-4.1-4.1-10.7,0-14.7l34.3-34.3l-34.3-34.3
			c-4.1-4.1-4.1-10.7,0-14.7s10.7-4.1,14.7,0l41.7,41.7c4.1,4.1,4.1,10.7,0,14.7l-41.7,41.7C407.2,119.6,404.5,120.6,401.8,120.6z"
			/>
	</g>
	<g id="XMLID_9076_">
		<path id="XMLID_17266_" class="st0" d="M172.7,78.9h-125c-5.8,0-10.4-4.7-10.4-10.4s4.7-10.4,10.4-10.4h125
			c5.8,0,10.4,4.7,10.4,10.4S178.4,78.9,172.7,78.9z"/>
	</g>
	<g id="XMLID_9075_">
		<path id="XMLID_17265_" class="st0" d="M89.3,120.6c-2.7,0-5.3-1-7.4-3.1L40.3,75.9c-4.1-4.1-4.1-10.7,0-14.7L82,19.5
			c4.1-4.1,10.7-4.1,14.7,0s4.1,10.7,0,14.7L62.4,68.5l34.3,34.3c4.1,4.1,4.1,10.7,0,14.7C94.7,119.6,92,120.6,89.3,120.6z"/>
	</g>
	<g id="XMLID_9074_">
		<path id="XMLID_17262_" class="st0" d="M360.2,495.6h-48.8c-25,0-48.6-9.7-66.3-27.5L96.7,319.8c-12.2-12.2-12.2-32,0-44.2
			c19-19,49.5-21.2,71-5.1l36.2,27.2V120.6c0-23,18.7-41.7,41.7-41.7c23,0,41.7,18.7,41.7,41.7v68.1c6.1-3.6,13.2-5.6,20.8-5.6
			c18.1,0,33.6,11.7,39.3,27.9c6.6-4.5,14.6-7.1,23.2-7.1c18.1,0,33.6,11.7,39.3,27.9c6.6-4.5,14.6-7.1,23.2-7.1
			c23,0,41.7,18.7,41.7,41.7V381C474.8,444.2,423.3,495.6,360.2,495.6z M135.2,280.5c-8.7,0-17.3,3.3-23.7,9.8
			c-4.1,4.1-4.1,10.7,0,14.7l148.4,148.4c13.8,13.8,32.1,21.4,51.6,21.4h48.8c51.7,0,93.8-42.1,93.8-93.8V266.4
			c0-11.5-9.3-20.8-20.8-20.8c-11.5,0-20.8,9.3-20.8,20.8v10.4c0,5.8-4.7,10.4-10.4,10.4c-5.8,0-10.4-4.7-10.4-10.4v-31.2
			c0-11.5-9.3-20.8-20.8-20.8c-11.5,0-20.8,9.3-20.8,20.8v31.2c0,5.8-4.7,10.4-10.4,10.4c-5.8,0-10.4-4.7-10.4-10.4v-52.1
			c0-11.5-9.3-20.8-20.8-20.8c-11.5,0-20.8,9.3-20.8,20.8v52.1c0,5.8-4.7,10.4-10.4,10.4c-5.8,0-10.4-4.7-10.4-10.4V120.6
			c0-11.5-9.3-20.8-20.8-20.8c-11.5,0-20.8,9.3-20.8,20.8v197.9c0,3.9-2.2,7.5-5.8,9.3c-3.5,1.8-7.8,1.4-10.9-1l-52.9-39.7
			C149.3,282.7,142.2,280.5,135.2,280.5z"/>
	</g>
</g>
</svg>
