<svg id="Layer_1" data-name="Layer 1" xmlns="http://www.w3.org/2000/svg" viewBox="0 0 437.57 479.18"><defs><style>.cls-1{fill:#7352ff;}</style></defs><path class="cls-1" d="M406.27,62.48h-125a10.41,10.41,0,0,1,0-20.81h125a10.41,10.41,0,0,1,0,20.81Z"/><path class="cls-1" d="M364.57,104.17a10.44,10.44,0,0,1-7.4-17.79l34.3-34.3-34.3-34.3a10.4,10.4,0,1,1,14.71-14.7l41.7,41.7a10.32,10.32,0,0,1,0,14.7l-41.7,41.7A10.1,10.1,0,0,1,364.57,104.17Z"/><path class="cls-1" d="M135.47,62.48h-125a10.41,10.41,0,0,1,0-20.81h125a10.41,10.41,0,0,1,0,20.81Z"/><path class="cls-1" d="M52.08,104.17a10.31,10.31,0,0,1-7.4-3.09L3.07,59.48a10.34,10.34,0,0,1,0-14.7l41.7-41.7a10.3,10.3,0,0,1,14.7,0,10.41,10.41,0,0,1,0,14.7L25.18,52.08l34.29,34.3a10.32,10.32,0,0,1,0,14.7A10.16,10.16,0,0,1,52.08,104.17Z"/><path class="cls-1" d="M323,479.18h-48.8a92.91,92.91,0,0,1-66.3-27.5L59.47,303.37a31.26,31.26,0,0,1,0-44.2,54.6,54.6,0,0,1,71-5.1l36.2,27.2V104.17a41.7,41.7,0,1,1,83.4,0v68.1a40.72,40.72,0,0,1,20.8-5.6,41.8,41.8,0,0,1,39.3,27.9,41,41,0,0,1,23.2-7.1,41.8,41.8,0,0,1,39.3,27.9,41,41,0,0,1,23.2-7.1,41.74,41.74,0,0,1,41.7,41.7V364.58C437.57,427.78,386.07,479.18,323,479.18ZM98,264.08a33.12,33.12,0,0,0-23.7,9.79,10.35,10.35,0,0,0,0,14.71L222.67,437a72.47,72.47,0,0,0,51.6,21.4h48.8a93.93,93.93,0,0,0,93.8-93.79V250a20.8,20.8,0,0,0-41.6,0v10.4a10.4,10.4,0,1,1-20.79,0v-31.2a20.8,20.8,0,0,0-41.6,0v31.2a10.4,10.4,0,1,1-20.8,0v-52.1a20.8,20.8,0,0,0-41.6,0v52.1a10.4,10.4,0,1,1-20.8,0V104.17a20.8,20.8,0,0,0-41.6,0v197.9a10.38,10.38,0,0,1-5.8,9.29,10.26,10.26,0,0,1-10.9-1l-52.9-39.7A36.25,36.25,0,0,0,98,264.08Z"/></svg>