<svg xmlns="http://www.w3.org/2000/svg" version="1.1" xmlns:xlink="http://www.w3.org/1999/xlink" xmlns:svgjs="http://svgjs.dev/svgjs" viewBox="0 0 800 800"><defs><filter id="uuunion-blur" x="-100%" y="-100%" width="400%" height="400%" color-interpolation-filters="sRGB">
        <feGaussianBlur in="SourceGraphic" stdDeviation="7.5 0" result="blur"></feGaussianBlur>
        <feDropShadow stdDeviation="12.307692307692308" in="blur" dx="10" dy="10" flood-color="hsl(331, 90%, 56%)" flood-opacity="0.25" x="0%" y="0%" width="100%" height="100%"></feDropShadow>
      </filter><filter id="uuunion-blur2" x="-100%" y="-100%" width="400%" height="400%" color-interpolation-filters="sRGB">
        <feGaussianBlur in="SourceGraphic" stdDeviation="7.5 0" result="blur"></feGaussianBlur>
        <feDropShadow stdDeviation="12.307692307692308" in="blur" dx="-10" dy="-10" flood-color="hsl(331, 90%, 56%)" flood-opacity="0.25" x="0%" y="0%" width="100%" height="100%"></feDropShadow>
      </filter><linearGradient gradientTransform="rotate(0, 0.5, 0.5)" x1="50%" y1="0%" x2="50%" y2="100%" id="uuunion-grad"><stop stop-color="hsl(206, 75%, 49%)" offset="10%"></stop><stop stop-color="hsl(331, 90%, 56%)" offset="90%"></stop></linearGradient><linearGradient gradientTransform="rotate(135, 0.5, 0.5)" x1="50%" y1="0%" x2="50%" y2="100%" id="uuunion-grad2"><stop stop-color="hsl(206, 75%, 49%)" offset="25%"></stop><stop stop-color="hsl(331, 90%, 56%)" offset="100%"></stop></linearGradient><linearGradient gradientTransform="rotate(333, 0.5, 0.5)" x1="50%" y1="0%" x2="50%" y2="100%" id="uuunion-grad3"><stop stop-color="hsl(206, 75%, 49%)" offset="0%"></stop><stop stop-color="hsl(331, 90%, 56%)" offset="75%"></stop></linearGradient></defs><path d="M-79.49 -80.25Q-64.67 -77.64 -49.85 -75.24 -35.03 -73.26 -20.21 -71.89 -5.39 -71.24 9.42 -71.37 24.24 -72.27 39.06 -73.86 53.88 -76 68.7 -78.5 83.52 -81.13 98.34 -83.66 113.16 -85.86 127.98 -87.54 142.8 -88.54 157.62 -88.78 172.44 -88.24 187.26 -86.96 202.08 -85.05 216.9 -82.7 231.72 -80.1 246.54 -77.5 261.36 -75.12 276.18 -73.17 291 -71.83 305.82 -71.23 320.64 -71.4 335.46 -72.34 350.28 -73.97 365.1 -76.14 379.92 -78.65 394.74 -81.28 409.56 -83.79 424.38 -85.97 439.2 -87.61 454.02 -88.57 468.84 -88.77 483.66 -88.18 498.48 -86.86 513.3 -84.93 528.12 -82.56 542.94 -79.96 557.76 -77.36 572.58 -74.99 587.4 -73.08 602.22 -71.78 617.04 -71.21 631.86 -71.43 646.68 -72.42 661.5 -74.08 676.32 -76.27 691.14 -78.79 705.96 -81.42 720.78 -83.92 735.6 -86.08 750.42 -87.68 765.24 -88.61 780.06 -88.76 794.87 -88.13 809.69 -86.77 824.51 -84.81 839.33 -82.42 854.15 -79.81 868.97 -77.22 860.05 -62.15 856.01 -47.07 857.84 -32 865.09 -16.93 876 -1.86 887.88 13.2 897.83 28.27 903.42 43.34 903.27 58.41 897.42 73.48 887.31 88.56 875.4 103.63 864.62 118.7 857.61 133.77 856.07 148.84 860.39 163.91 869.52 178.98 881.2 194.05 892.59 209.12 900.9 224.19 904.09 239.27 901.38 254.34 893.43 269.41 882.2 284.48 870.42 299.55 860.99 314.62 856.21 329.69 857.26 344.76 863.87 359.83 874.43 374.9 886.35 389.98 896.72 405.05 902.99 420.12 903.63 435.19 898.49 450.26 888.81 465.33 876.98 480.4 865.89 495.47 858.25 510.54 855.93 525.62 859.51 540.69 868.1 555.76 879.6 570.83 891.2 585.9 900.06 600.97 904 616.04 902.07 631.11 894.73 646.18 883.78 661.25 871.91 676.33 862.01 691.4 856.52 706.47 856.78 721.54 862.72 736.61 872.89 751.68 884.8 766.75 895.53 781.82 902.46 796.89 903.89 811.97 899.47 827.04 890.28 842.11 878.57 857.18 867.21 872.25 858.98 887.32 844.33 880.49 829.67 873.61 815.01 867.3 800.36 862.13 785.7 858.56 771.04 856.89 756.39 857.29 741.73 859.72 727.07 863.96 712.42 869.64 697.76 876.23 683.1 883.17 668.45 889.82 653.79 895.59 639.13 899.97 624.48 902.56 609.82 903.14 595.16 901.66 580.51 898.23 565.85 893.18 551.19 886.95 536.54 880.1 521.88 873.24 507.22 866.98 492.57 861.89 477.91 858.41 463.25 856.86 448.6 857.38 433.94 859.92 419.28 864.25 404.63 869.99 389.97 876.62 375.31 883.55 360.66 890.17 346 895.88 331.34 900.17 316.69 902.65 302.03 903.11 287.37 901.51 272.71 897.99 258.06 892.86 243.4 886.58 228.74 879.71 214.09 872.86 199.43 866.66 184.77 861.64 170.12 858.27 155.46 856.83 140.8 857.47 126.15 860.12 111.49 864.54 96.83 870.34 82.18 877.01 67.52 883.94 52.86 890.52 38.21 896.16 23.55 900.35 8.89 902.73 -5.75 903.08 -20.41 901.36 -35.07 897.74 -49.72 892.53 -64.38 886.2 -79.04 879.32 -79.41 864.32 -79.93 849.33 -80.46 834.34 -80.88 819.34 -81.09 804.35 -81.02 789.36 -80.7 774.36 -80.21 759.37 -79.67 744.38 -79.21 729.38 -78.94 714.39 -78.92 699.4 -79.17 684.4 -79.63 669.41 -80.17 654.42 -80.67 639.42 -81 624.43 -81.09 609.44 -80.91 594.44 -80.51 579.45 -79.98 564.46 -79.45 549.46 -79.06 534.47 -78.9 519.48 -79 504.48 -79.35 489.49 -79.86 474.49 -80.4 459.5 -80.84 444.51 -81.07 429.51 -81.04 414.52 -80.76 399.53 -80.29 384.53 -79.74 369.54 -79.26 354.55 -78.96 339.55 -78.91 324.56 -79.13 309.57 -79.56 294.57 -80.1 279.58 -80.61 264.59 -80.97 249.59 -81.09 234.6 -80.95 219.61 -80.57 204.61 -80.05 189.62 -79.52 174.63 -79.1 159.63 -78.9 144.64 -78.97 129.65 -79.29 114.65 -79.79 99.66 -80.33 84.67 -80.79 69.67 -81.06 54.68 -81.06 39.69 -80.81 24.69 -80.35 9.7 -79.81 -5.28 -79.31 -20.28 -78.98 -35.27 -78.9 -50.27 -79.08 -65.26 -79.49 -80.25" fill="url(#uuunion-grad)"></path><path d="M-79.49 -80.25Q-79.08 -65.26 -78.9 -50.27 -78.98 -35.27 -79.31 -20.28 -79.81 -5.28 -80.35 9.7 -80.81 24.69 -81.06 39.69 -81.06 54.68 -80.79 69.67 -80.33 84.67 -79.79 99.66 -79.29 114.65 -78.97 129.65 -78.9 144.64 -79.1 159.63 -79.52 174.63 -80.05 189.62 -80.57 204.61 -80.95 219.61 -81.09 234.6 -80.97 249.59 -80.61 264.59 -80.1 279.58 -79.56 294.57 -79.13 309.57 -78.91 324.56 -78.96 339.55 -79.26 354.55 -79.74 369.54 -80.29 384.53 -80.76 399.53 -70.58 402.71 -60.39 405.79 -50.21 408.64 -40.03 411.14 -29.85 413.2 -19.67 414.73 -0.58 415.91 2.72 415.98 15.18 408.99 27.51 401.07 39.68 392.33 51.7 382.94 63.6 373.1 75.4 363.03 87.13 352.98 98.86 343.17 110.63 333.83 122.49 325.13 134.49 317.23 146.7 310.21 159.13 304.11 171.83 298.91 184.81 294.53 198.06 290.85 211.58 287.7 225.33 284.88 239.25 282.18 253.3 279.37 267.39 276.25 281.45 272.63 295.4 268.34 309.14 263.29 322.6 257.4 335.72 250.67 348.43 243.13 360.7 234.88 372.5 226.05 383.85 216.8 394.77 207.34 405.3 197.85 415.52 188.54 425.52 179.59 435.4 171.17 445.28 163.4 455.28 156.37 465.52 150.11 476.12 144.61 487.18 139.82 498.78 135.63 511 131.9 523.87 128.49 537.41 125.19 551.58 121.84 566.35 118.26 581.62 114.27 597.3 109.76 613.24 104.62 629.31 98.79 645.35 92.26 661.18 85.06 676.66 77.25 691.63 68.95 705.95 60.28 719.54 51.41 732.3 42.5 744.19 33.71 755.23 25.2 765.43 17.1 774.89 9.51 783.7 2.52 792.01 -3.83 800 -9.57 787.88 -26.82 779.77 -44.07 778.35 -61.32 784.09 -78.57 795.09 -95.81 807.71 -113.06 817.78 -130.31 821.97 -147.56 806.67 -147.89 791.38 -147.53 776.08 -146.5 760.78 -144.9 745.49 -142.87 730.19 -140.58 714.89 -138.24 699.59 -136.05 684.3 -134.22 669 -132.89 653.7 -132.19 638.41 -132.18 623.11 -132.85 607.81 -134.16 592.52 -135.98 577.22 -138.16 561.92 -140.5 546.62 -142.79 531.33 -144.84 516.03 -146.46 500.73 -147.51 485.44 -147.89 470.14 -147.58 454.84 -146.6 439.54 -145.04 424.25 -143.03 408.95 -140.76 393.65 -138.41 378.36 -136.21 363.06 -134.34 347.76 -132.97 332.46 -132.22 317.17 -132.15 301.87 -132.78 286.57 -134.04 271.28 -135.83 255.98 -137.99 240.68 -140.32 225.38 -142.62 210.09 -144.7 194.79 -146.35 179.49 -147.45 164.2 -147.89 148.9 -147.63 133.6 -146.7 118.3 -145.18 103.01 -143.2 87.71 -140.93 72.41 -138.59 57.12 -136.37 41.82 -134.47 26.52 -133.05 11.22 -132.25 -4.06 -132.13 -19.36 -132.71 -34.66 -133.93 -49.95 -135.68 -65.25 -137.82 -80.55 -140.14 -95.85 -142.46 -111.14 -144.55 -126.44 -146.25 -136.22 -134.02 -118.03 -115.8 -108.24 -107.16 -98.53 -98.33 -88.95 -89.34 -79.49 -80.25" fill="url(#uuunion-grad2)" filter="url(#uuunion-blur)"></path><path d="M815.26 384.67Q825.44 385.89 835.63 387.68 845.81 389.95 855.99 392.62 866.17 395.59 876.35 398.74 886.54 401.93 896.72 405.05 902.99 420.12 903.63 435.19 898.49 450.26 888.81 465.33 876.98 480.4 865.89 495.47 858.25 510.54 855.93 525.62 859.51 540.69 868.1 555.76 879.6 570.83 891.2 585.9 900.06 600.97 904 616.04 902.07 631.11 894.73 646.18 883.78 661.25 871.91 676.33 862.01 691.4 856.52 706.47 856.78 721.54 862.72 736.61 872.89 751.68 884.8 766.75 895.53 781.82 902.46 796.89 903.89 811.97 899.47 827.04 890.28 842.11 878.57 857.18 867.21 872.25 858.98 887.32 845.53 881.06 832.08 874.72 818.63 868.78 805.18 863.68 791.73 859.81 778.28 857.46 764.83 856.81 751.38 857.9 737.93 860.66 724.48 864.88 711.03 870.23 697.58 876.32 684.13 882.69 670.67 888.85 657.22 894.34 643.77 898.76 630.32 901.76 616.87 903.12 603.42 902.74 589.97 900.65 576.52 897 563.07 892.07 549.62 886.23 536.17 879.92 522.72 873.62 509.27 867.8 495.82 862.89 482.37 859.27 468.92 857.22 455.47 856.88 442.02 858.28 428.56 861.31 415.11 865.76 401.66 871.27 388.21 877.45 374.76 883.81 361.31 889.89 347.86 895.22 334.41 899.41 320.96 902.13 307.51 903.19 294.06 902.49 280.61 900.11 267.16 896.21 253.71 891.09 240.26 885.13 226.81 878.79 213.36 872.53 199.9 866.84 186.45 862.14 173 858.79 159.55 857.03 146.1 857 132.65 858.7 119.2 862.01 105.75 866.67 92.3 872.34 78.85 878.58 65.4 884.93 51.95 890.9 38.5 896.06 25.05 900 4.97 897.74 -1.37 882.89 -1.05 872.74 -0.73 862.59 -0.44 852.44 -0.21 842.29 0.2 827.07 0.99 822 13.78 814.97 26.48 806.64 39.06 797.14 51.49 786.68 63.74 775.53 75.83 764.01 87.74 752.44 99.52 741.15 111.17 730.46 122.76 720.62 134.33 711.86 145.93 704.33 157.64 698.09 169.5 693.12 181.57 689.35 193.91 686.6 206.53 684.64 219.48 683.21 232.74 682.01 246.31 680.7 260.16 679 274.24 676.62 288.49 673.33 302.82 668.96 317.17 663.39 331.43 656.6 345.51 648.63 359.33 639.6 372.79 629.7 385.84 619.15 398.42 608.23 410.49 597.23 422.06 586.45 433.14 576.17 443.76 566.63 453.99 558.03 463.92 550.5 473.66 544.11 483.31 538.86 493.02 534.68 502.92 531.43 513.12 528.91 523.76 526.88 534.93 525.07 546.73 523.22 559.21 521.04 572.39 518.29 586.29 514.76 600.85 510.29 616.02 504.77 631.69 498.17 647.74 490.54 664.02 481.95 680.37 472.57 696.62 462.6 712.59 452.29 728.13 441.87 743.07 431.62 757.28 421.77 770.67 412.56 783.18 404.14 794.76 396.66 810.35 387.42 815.26 384.67" fill="url(#uuunion-grad3)" filter="url(#uuunion-blur2)"></path></svg>