<svg id="visual" viewBox="0 0 900 600" width="900" height="600" xmlns="http://www.w3.org/2000/svg" xmlns:xlink="http://www.w3.org/1999/xlink" version="1.1"><path d="M0 229L82 229L82 271L164 271L164 115L245 115L245 181L327 181L327 121L409 121L409 145L491 145L491 259L573 259L573 181L655 181L655 253L736 253L736 181L818 181L818 271L900 271L900 205L900 0L900 0L818 0L818 0L736 0L736 0L655 0L655 0L573 0L573 0L491 0L491 0L409 0L409 0L327 0L327 0L245 0L245 0L164 0L164 0L82 0L82 0L0 0Z" fill="#fa7268"></path><path d="M0 337L82 337L82 391L164 391L164 283L245 283L245 385L327 385L327 355L409 355L409 331L491 331L491 373L573 373L573 415L655 415L655 355L736 355L736 337L818 337L818 379L900 379L900 355L900 203L900 269L818 269L818 179L736 179L736 251L655 251L655 179L573 179L573 257L491 257L491 143L409 143L409 119L327 119L327 179L245 179L245 113L164 113L164 269L82 269L82 227L0 227Z" fill="#ea5e66"></path><path d="M0 403L82 403L82 487L164 487L164 379L245 379L245 433L327 433L327 463L409 463L409 433L491 433L491 445L573 445L573 475L655 475L655 421L736 421L736 415L818 415L818 463L900 463L900 439L900 353L900 377L818 377L818 335L736 335L736 353L655 353L655 413L573 413L573 371L491 371L491 329L409 329L409 353L327 353L327 383L245 383L245 281L164 281L164 389L82 389L82 335L0 335Z" fill="#d84a64"></path><path d="M0 505L82 505L82 523L164 523L164 451L245 451L245 535L327 535L327 511L409 511L409 535L491 535L491 481L573 481L573 547L655 547L655 499L736 499L736 469L818 469L818 535L900 535L900 511L900 437L900 461L818 461L818 413L736 413L736 419L655 419L655 473L573 473L573 443L491 443L491 431L409 431L409 461L327 461L327 431L245 431L245 377L164 377L164 485L82 485L82 401L0 401Z" fill="#c53762"></path><path d="M0 601L82 601L82 601L164 601L164 601L245 601L245 601L327 601L327 601L409 601L409 601L491 601L491 601L573 601L573 601L655 601L655 601L736 601L736 601L818 601L818 601L900 601L900 601L900 509L900 533L818 533L818 467L736 467L736 497L655 497L655 545L573 545L573 479L491 479L491 533L409 533L409 509L327 509L327 533L245 533L245 449L164 449L164 521L82 521L82 503L0 503Z" fill="#b0235f"></path></svg>