<svg id="visual" viewBox="0 0 900 600" width="900" height="600" xmlns="http://www.w3.org/2000/svg" xmlns:xlink="http://www.w3.org/1999/xlink" version="1.1"><path d="M0 73L82 79L164 79L245 157L327 157L409 91L491 127L573 79L655 61L736 79L818 79L900 49L900 0L818 0L736 0L655 0L573 0L491 0L409 0L327 0L245 0L164 0L82 0L0 0Z" fill="#f6c627"></path><path d="M0 133L82 157L164 175L245 199L327 235L409 133L491 217L573 145L655 151L736 121L818 181L900 103L900 47L818 77L736 77L655 59L573 77L491 125L409 89L327 155L245 155L164 77L82 77L0 71Z" fill="#ff8042"></path><path d="M0 313L82 271L164 259L245 433L327 313L409 313L491 391L573 403L655 373L736 319L818 289L900 265L900 101L818 179L736 119L655 149L573 143L491 215L409 131L327 233L245 197L164 173L82 155L0 131Z" fill="#ff3c77"></path><path d="M0 355L82 313L164 373L245 493L327 403L409 427L491 493L573 475L655 463L736 409L818 397L900 391L900 263L818 287L736 317L655 371L573 401L491 389L409 311L327 311L245 431L164 257L82 269L0 311Z" fill="#e421ba"></path><path d="M0 601L82 601L164 601L245 601L327 601L409 601L491 601L573 601L655 601L736 601L818 601L900 601L900 389L818 395L736 407L655 461L573 473L491 491L409 425L327 401L245 491L164 371L82 311L0 353Z" fill="#7352ff"></path></svg>