<svg id="visual" viewBox="0 0 900 600" width="900" height="600" xmlns="http://www.w3.org/2000/svg" xmlns:xlink="http://www.w3.org/1999/xlink" version="1.1"><rect x="0" y="0" width="900" height="600" fill="#140021"></rect><path d="M0 291L129 291L129 253L257 253L257 296L386 296L386 331L514 331L514 339L643 339L643 283L771 283L771 246L900 246L900 220L900 601L900 601L771 601L771 601L643 601L643 601L514 601L514 601L386 601L386 601L257 601L257 601L129 601L129 601L0 601Z" fill="#9900ff"></path><path d="M0 314L129 314L129 407L257 407L257 443L386 443L386 442L514 442L514 428L643 428L643 346L771 346L771 363L900 363L900 390L900 601L900 601L771 601L771 601L643 601L643 601L514 601L514 601L386 601L386 601L257 601L257 601L129 601L129 601L0 601Z" fill="#7700c6"></path><path d="M0 429L129 429L129 447L257 447L257 453L386 453L386 420L514 420L514 468L643 468L643 431L771 431L771 432L900 432L900 480L900 601L900 601L771 601L771 601L643 601L643 601L514 601L514 601L386 601L386 601L257 601L257 601L129 601L129 601L0 601Z" fill="#560090"></path></svg>