<svg id="visual" viewBox="0 0 900 600" width="900" height="600" xmlns="http://www.w3.org/2000/svg" xmlns:xlink="http://www.w3.org/1999/xlink" version="1.1"><rect x="0" y="0" width="900" height="600" fill="#6EE4B5"></rect><defs><linearGradient id="grad1_0" x1="33.3%" y1="0%" x2="100%" y2="100%"><stop offset="20%" stop-color="#6ee4b5" stop-opacity="1"></stop><stop offset="80%" stop-color="#6ee4b5" stop-opacity="1"></stop></linearGradient></defs><defs><linearGradient id="grad2_0" x1="0%" y1="0%" x2="66.7%" y2="100%"><stop offset="20%" stop-color="#6ee4b5" stop-opacity="1"></stop><stop offset="80%" stop-color="#6ee4b5" stop-opacity="1"></stop></linearGradient></defs><g transform="translate(900, 0)"><path d="M0 486.7C-71.3 488.1 -142.7 489.5 -186.3 449.7C-229.8 409.9 -245.7 329 -277.9 277.9C-310.1 226.8 -358.8 205.5 -396.3 164.2C-433.9 122.8 -460.3 61.4 -486.7 0L0 0Z" fill="#7352FF"></path></g><g transform="translate(0, 600)"><path d="M0 -486.7C59.5 -472 119 -457.3 181 -437C243 -416.7 307.6 -390.9 344.2 -344.2C380.7 -297.5 389.3 -230 408.4 -169.1C427.4 -108.3 457.1 -54.2 486.7 0L0 0Z" fill="#7352FF"></path></g></svg>